<?xml version="1.0" encoding="UTF-8"?>
<svg width="34px" height="48px" viewBox="0 0 34 48" version="1.1" xmlns="http://www.w3.org/2000/svg" xmlns:xlink="http://www.w3.org/1999/xlink">
    <!-- Generator: Sketch 58 (84663) - https://sketch.com -->
    <title>marker-library</title>
    <desc>Created with Sketch.</desc>
    <defs>
        <ellipse id="path-1" cx="17" cy="42.5" rx="8" ry="2.5"></ellipse>
        <filter x="-37.5%" y="-120.0%" width="175.0%" height="340.0%" filterUnits="objectBoundingBox" id="filter-2">
            <feOffset dx="0" dy="0" in="SourceAlpha" result="shadowOffsetOuter1"></feOffset>
            <feGaussianBlur stdDeviation="2" in="shadowOffsetOuter1" result="shadowBlurOuter1"></feGaussianBlur>
            <feColorMatrix values="0 0 0 0 0   0 0 0 0 0   0 0 0 0 0  0 0 0 0.5 0" type="matrix" in="shadowBlurOuter1"></feColorMatrix>
        </filter>
    </defs>
    <g id="marker-library" stroke="none" stroke-width="1" fill="none" fill-rule="evenodd">
        <rect id="Rectangle" x="0" y="0" width="34" height="48"></rect>
        <g id="Oval" fill="black" fill-opacity="1">
            <use filter="url(#filter-2)" xlink:href="#path-1"></use>
        </g>
        <path d="M17,41 C22.8022386,34.3859887 26.6754281,30.0524558 28.6195684,27.9994013 C31.3347297,25.1321318 33,21.2605383 33,17 C33,8.163444 25.836556,1 17,1 C8.163444,1 1,8.163444 1,17 C1,21.2612493 2.66582621,25.1334241 5.38179113,28.0008368 C7.32588022,30.0533322 11.1986165,34.3863867 17,41 Z" id="Oval-Copy" fill="#f00e21"></path>
        <path d="M17.7517324,41.6594683 L23.0979601,35.5947893 L25.8952809,32.4588224 C26.9988774,31.2301183 27.9161941,30.2215668 28.6469508,29.4334649 L29.3456727,28.6869859 C32.3149985,25.5513131 34,21.4066085 34,17 C34,7.61115925 26.3888407,0 17,0 C7.61115925,0 0,7.61115925 0,17 C0,21.4073408 1.68556431,25.5526787 4.65577128,28.6885105 L5.67230638,29.778682 L7.59673942,31.8937926 C9.7151989,34.2441661 12.5998147,37.5002093 16.2482391,41.6594358 C16.6465462,42.1135083 17.3534057,42.1135236 17.7517324,41.6594683 Z M17.0000319,39.4840597 L11.9995274,33.8180511 L9.89830007,31.4625725 C8.24787339,29.6217438 6.98465929,28.2389062 6.10781097,27.313163 C3.48605105,24.5452084 2,20.8905369 2,17 C2,8.71572875 8.71572875,2 17,2 C25.2842712,2 32,8.71572875 32,17 C32,20.7557568 30.6151311,24.2917152 28.1605355,27.0223563 L26.6669746,28.6301559 C24.6119484,30.8677994 21.3911045,34.4842099 17.0000319,39.4840597 Z" id="Oval" fill="#FFFFFF" fill-rule="nonzero"></path>
        <path d="M17,16.6625 C15.635,15.3875 13.91,14.495 11.99,14.15 C11.0825,13.9925 10.25,14.7125 10.25,15.635 L10.25,20.315 C10.25,21.575 10.79,22.235 11.5325,22.3325 C13.4075,22.5725 15.11,23.345 16.505,24.485 C16.7675,24.7025 17.195,24.725 17.4575,24.515 C18.86,23.3675 20.5775,22.58 22.4675,22.34 C23.1725,22.2425 23.75,21.545 23.75,20.825 L23.75,15.635 C23.75,14.7125 22.9175,13.9925 22.01,14.15 C20.09,14.495 18.365,15.3875 17,16.6625 L17,16.6625 Z M17,14 C18.245,14 19.25,12.995 19.25,11.75 C19.25,10.505 18.245,9.5 17,9.5 C15.755,9.5 14.75,10.505 14.75,11.75 C14.75,12.995 15.755,14 17,14 Z" id="Shape" fill="#FFFFFF"></path>
    </g>
</svg>