<?xml version="1.0" encoding="UTF-8"?>
<svg width="34px" height="48px" viewBox="0 0 34 48" version="1.1" xmlns="http://www.w3.org/2000/svg" xmlns:xlink="http://www.w3.org/1999/xlink">
    <!-- Generator: Sketch 58 (84663) - https://sketch.com -->
    <title>marker-restaurant</title>
    <desc>Created with Sketch.</desc>
    <defs>
        <ellipse id="path-1" cx="17" cy="42.5" rx="8" ry="2.5"></ellipse>
        <filter x="-37.5%" y="-120.0%" width="175.0%" height="340.0%" filterUnits="objectBoundingBox" id="filter-2">
            <feOffset dx="0" dy="0" in="SourceAlpha" result="shadowOffsetOuter1"></feOffset>
            <feGaussianBlur stdDeviation="2" in="shadowOffsetOuter1" result="shadowBlurOuter1"></feGaussianBlur>
            <feColorMatrix values="0 0 0 0 0   0 0 0 0 0   0 0 0 0 0  0 0 0 0.5 0" type="matrix" in="shadowBlurOuter1"></feColorMatrix>
        </filter>
    </defs>
    <g id="marker-restaurant" stroke="none" stroke-width="1" fill="none" fill-rule="evenodd">
        <rect id="Rectangle" x="0" y="0" width="34" height="48"></rect>
        <g id="Oval" fill="black" fill-opacity="1">
            <use filter="url(#filter-2)" xlink:href="#path-1"></use>
        </g>
        <path d="M17,41 C22.8022386,34.3859887 26.6754281,30.0524558 28.6195684,27.9994013 C31.3347297,25.1321318 33,21.2605383 33,17 C33,8.163444 25.836556,1 17,1 C8.163444,1 1,8.163444 1,17 C1,21.2612493 2.66582621,25.1334241 5.38179113,28.0008368 C7.32588022,30.0533322 11.1986165,34.3863867 17,41 Z" id="Oval-Copy" fill="#f00e21"></path>
        <path d="M17.7517324,41.6594683 L23.0979601,35.5947893 L25.8952809,32.4588224 C26.9988774,31.2301183 27.9161941,30.2215668 28.6469508,29.4334649 L29.3456727,28.6869859 C32.3149985,25.5513131 34,21.4066085 34,17 C34,7.61115925 26.3888407,0 17,0 C7.61115925,0 0,7.61115925 0,17 C0,21.4073408 1.68556431,25.5526787 4.65577128,28.6885105 L5.67230638,29.778682 L7.59673942,31.8937926 C9.7151989,34.2441661 12.5998147,37.5002093 16.2482391,41.6594358 C16.6465462,42.1135083 17.3534057,42.1135236 17.7517324,41.6594683 Z M17.0000319,39.4840597 L11.9995274,33.8180511 L9.89830007,31.4625725 C8.24787339,29.6217438 6.98465929,28.2389062 6.10781097,27.313163 C3.48605105,24.5452084 2,20.8905369 2,17 C2,8.71572875 8.71572875,2 17,2 C25.2842712,2 32,8.71572875 32,17 C32,20.7557568 30.6151311,24.2917152 28.1605355,27.0223563 L26.6669746,28.6301559 C24.6119484,30.8677994 21.3911045,34.4842099 17.0000319,39.4840597 Z" id="Oval" fill="#FFFFFF" fill-rule="nonzero"></path>
        <path d="M14.075,18.005 L16.1975,15.8825 L11.555,11.2475 C11.195,10.8875 10.5725,10.985 10.3475,11.45 C9.815,12.5675 10.01,13.94 10.9325,14.87 L14.075,18.005 Z M19.16,16.6475 C20.3075,17.18 21.92,16.805 23.1125,15.6125 C24.545,14.18 24.8225,12.125 23.72,11.0225 C22.625,9.9275 20.57,10.1975 19.13,11.63 C17.9375,12.8225 17.5625,14.435 18.095,15.5825 L11.3,22.3775 C11.0075,22.67 11.0075,23.1425 11.3,23.435 C11.5925,23.7275 12.065,23.7275 12.3575,23.435 L17,18.8075 L21.635,23.4425 C21.9275,23.735 22.4,23.735 22.6925,23.4425 C22.985,23.15 22.985,22.6775 22.6925,22.385 L18.0575,17.75 L19.16,16.6475 Z" id="Shape" fill="#FFFFFF"></path>
    </g>
</svg>