<?xml version="1.0" encoding="utf-8"?>
<svg viewBox="0 0 34 48" xmlns="http://www.w3.org/2000/svg" width="34px" height="48px">
  <defs>
    <filter x="-37.5%" y="-120.0%" width="175.0%" height="340.0%" filterUnits="objectBoundingBox" id="filter-2">
      <feOffset dx="0" dy="0" in="SourceAlpha" result="shadowOffsetOuter1"/>
      <feGaussianBlur stdDeviation="2" in="shadowOffsetOuter1" result="shadowBlurOuter1"/>
      <feColorMatrix values="0 0 0 0 0   0 0 0 0 0   0 0 0 0 0  0 0 0 0.5 0" type="matrix" in="shadowBlurOuter1"/>
    </filter>
  </defs>
  <g id="marker-bar" stroke="none" stroke-width="1" fill="none" fill-rule="evenodd">
    <rect id="Rectangle" x="0" y="0" width="34" height="48"/>
    <g id="Oval" fill="black" fill-opacity="1">
      <ellipse cx="17" cy="42.5" rx="8" ry="2.5" transform="matrix(1, 0, 0, 1, 0, 0)" filter="url(#filter-2)"/>
    </g>
    <path d="M17,41 C22.8022386,34.3859887 26.6754281,30.0524558 28.6195684,27.9994013 C31.3347297,25.1321318 33,21.2605383 33,17 C33,8.163444 25.836556,1 17,1 C8.163444,1 1,8.163444 1,17 C1,21.2612493 2.66582621,25.1334241 5.38179113,28.0008368 C7.32588022,30.0533322 11.1986165,34.3863867 17,41 Z" id="Oval-Copy" fill="#FF8A00"/>
    <path d="M17.7517324,41.6594683 L23.0979601,35.5947893 L25.8952809,32.4588224 C26.9988774,31.2301183 27.9161941,30.2215668 28.6469508,29.4334649 L29.3456727,28.6869859 C32.3149985,25.5513131 34,21.4066085 34,17 C34,7.61115925 26.3888407,0 17,0 C7.61115925,0 0,7.61115925 0,17 C0,21.4073408 1.68556431,25.5526787 4.65577128,28.6885105 L5.67230638,29.778682 L7.59673942,31.8937926 C9.7151989,34.2441661 12.5998147,37.5002093 16.2482391,41.6594358 C16.6465462,42.1135083 17.3534057,42.1135236 17.7517324,41.6594683 Z M17.0000319,39.4840597 L11.9995274,33.8180511 L9.89830007,31.4625725 C8.24787339,29.6217438 6.98465929,28.2389062 6.10781097,27.313163 C3.48605105,24.5452084 2,20.8905369 2,17 C2,8.71572875 8.71572875,2 17,2 C25.2842712,2 32,8.71572875 32,17 C32,20.7557568 30.6151311,24.2917152 28.1605355,27.0223563 L26.6669746,28.6301559 C24.6119484,30.8677994 21.3911045,34.4842099 17.0000319,39.4840597 Z" id="Oval" fill="#FFFFFF" fill-rule="nonzero"/>
  </g>
  <path d="M 9.546 10.776 L 7.879 10.776 C 7.419 10.776 7.046 11.152 7.046 11.61 L 7.046 15.222 C 6.432 15.222 5.934 15.719 5.934 16.334 C 5.934 16.948 6.432 17.445 7.014 17.445 L 7.046 21.058 C 7.046 21.519 7.419 21.891 7.879 21.891 L 9.546 21.891 C 10.008 21.891 10.38 21.519 10.38 21.058 L 10.38 11.61 C 10.38 11.152 10.008 10.776 9.546 10.776 Z M 21.772 8.553 L 20.105 8.553 C 19.647 8.553 19.272 8.927 19.272 9.387 L 19.272 15.222 L 14.826 15.222 L 14.826 9.387 C 14.826 8.927 14.454 8.553 13.992 8.553 L 12.325 8.553 C 11.867 8.553 11.491 8.927 11.491 9.387 L 11.491 23.281 C 11.491 23.742 11.867 24.114 12.325 24.114 L 13.992 24.114 C 14.454 24.114 14.826 23.742 14.826 23.281 L 14.826 17.445 L 19.272 17.445 L 19.272 23.281 C 19.272 23.741 19.645 24.114 20.105 24.114 L 21.772 24.114 C 22.233 24.114 22.606 23.741 22.606 23.281 L 22.606 9.387 C 22.606 8.927 22.234 8.553 21.772 8.553 Z M 27.052 15.222 L 27.052 11.61 C 27.052 11.152 26.68 10.776 26.218 10.776 L 24.551 10.776 C 24.092 10.776 23.717 11.152 23.717 11.61 L 23.717 21.058 C 23.717 21.518 24.091 21.891 24.551 21.891 L 26.218 21.891 C 26.678 21.891 27.052 21.518 27.052 21.058 L 27.052 17.445 C 27.665 17.445 28.163 16.948 28.163 16.334 C 28.163 15.719 27.666 15.222 27.052 15.222 Z" style="fill: rgb(255, 255, 255);"/>
</svg>